<mxfile host="app.diagrams.net" modified="2022-03-03T10:00:35.232Z" agent="5.0 (Windows NT 10.0; Win64; x64) AppleWebKit/537.36 (KHTML, like Gecko) Chrome/98.0.4758.102 Safari/537.36 Edg/98.0.1108.56" etag="kksunb0w9Vh2hnfe_VRa" version="16.6.5" type="github">
  <diagram id="tnTumeyrzD-RrZYyxLLr" name="Page-1">
    <mxGraphModel dx="782" dy="514" grid="1" gridSize="10" guides="1" tooltips="1" connect="1" arrows="1" fold="1" page="1" pageScale="1" pageWidth="827" pageHeight="1169" math="0" shadow="0">
      <root>
        <mxCell id="0" />
        <mxCell id="1" parent="0" />
        <mxCell id="9Rks6HAnN5bKSEFKCdXg-1" value="" style="rounded=0;whiteSpace=wrap;html=1;" vertex="1" parent="1">
          <mxGeometry x="20" y="50" width="700" height="440" as="geometry" />
        </mxCell>
        <mxCell id="9Rks6HAnN5bKSEFKCdXg-2" value="JVM&#xa;" style="text;strokeColor=none;fillColor=none;align=left;verticalAlign=middle;spacingLeft=4;spacingRight=4;overflow=hidden;points=[[0,0.5],[1,0.5]];portConstraint=eastwest;rotatable=0;" vertex="1" parent="1">
          <mxGeometry x="330" y="50" width="80" height="30" as="geometry" />
        </mxCell>
        <mxCell id="9Rks6HAnN5bKSEFKCdXg-3" value="" style="rounded=0;whiteSpace=wrap;html=1;" vertex="1" parent="1">
          <mxGeometry x="55" y="80" width="135" height="170" as="geometry" />
        </mxCell>
        <mxCell id="9Rks6HAnN5bKSEFKCdXg-4" value="" style="rounded=0;whiteSpace=wrap;html=1;" vertex="1" parent="1">
          <mxGeometry x="55" y="260" width="135" height="210" as="geometry" />
        </mxCell>
        <mxCell id="9Rks6HAnN5bKSEFKCdXg-5" value="" style="rounded=0;whiteSpace=wrap;html=1;" vertex="1" parent="1">
          <mxGeometry x="220" y="80" width="130" height="390" as="geometry" />
        </mxCell>
        <mxCell id="9Rks6HAnN5bKSEFKCdXg-6" value="" style="rounded=0;whiteSpace=wrap;html=1;" vertex="1" parent="1">
          <mxGeometry x="360" y="80" width="190" height="390" as="geometry" />
        </mxCell>
        <mxCell id="9Rks6HAnN5bKSEFKCdXg-7" value="" style="rounded=0;whiteSpace=wrap;html=1;" vertex="1" parent="1">
          <mxGeometry x="570" y="80" width="130" height="110" as="geometry" />
        </mxCell>
        <mxCell id="9Rks6HAnN5bKSEFKCdXg-8" value="" style="rounded=0;whiteSpace=wrap;html=1;" vertex="1" parent="1">
          <mxGeometry x="570" y="210" width="140" height="260" as="geometry" />
        </mxCell>
        <mxCell id="9Rks6HAnN5bKSEFKCdXg-9" value="Metaspace" style="text;html=1;strokeColor=none;fillColor=none;align=center;verticalAlign=middle;whiteSpace=wrap;rounded=0;" vertex="1" parent="1">
          <mxGeometry x="93" y="100" width="60" height="30" as="geometry" />
        </mxCell>
        <mxCell id="9Rks6HAnN5bKSEFKCdXg-10" value="类信息" style="rounded=0;whiteSpace=wrap;html=1;" vertex="1" parent="1">
          <mxGeometry x="80" y="170" width="80" height="50" as="geometry" />
        </mxCell>
      </root>
    </mxGraphModel>
  </diagram>
</mxfile>
